<svg width="1170" height="879" viewBox="0 0 1170 879" fill="none" xmlns="http://www.w3.org/2000/svg">
<line x1="127" y1="878" x2="127" y2="280" stroke="white" stroke-width="2" stroke-linecap="round"/>
<line x1="311" y1="878" x2="311" y2="280" stroke="white" stroke-width="2" stroke-linecap="round"/>
<line x1="495" y1="878" x2="495" y2="280" stroke="white" stroke-width="2" stroke-linecap="round"/>
<line x1="679" y1="878" x2="679" y2="280" stroke="white" stroke-width="2" stroke-linecap="round"/>
<line x1="863" y1="878" x2="863" y2="280" stroke="white" stroke-width="2" stroke-linecap="round"/>
<line x1="1047" y1="878" x2="1047" y2="280" stroke="white" stroke-width="2" stroke-linecap="round"/>
<line x1="1" y1="428" x2="1169" y2="428" stroke="white" stroke-width="2" stroke-linecap="round"/>
<line x1="1" y1="578" x2="1169" y2="578" stroke="white" stroke-width="2" stroke-linecap="round"/>
<line x1="1" y1="728" x2="1169" y2="728" stroke="white" stroke-width="2" stroke-linecap="round"/>
<rect x="274" width="114.416" height="110.653" rx="7.5274" fill="#8BB8E8"/>
<path d="M312.209 79V32.765H333.873C339.421 32.765 343.649 33.8659 346.555 36.0675C349.461 38.2252 350.914 41.1314 350.914 44.7861C350.914 47.252 350.342 49.3656 349.197 51.1269C348.052 52.8442 346.511 54.1872 344.573 55.156C342.68 56.0807 340.61 56.543 338.365 56.543L339.553 54.1652C342.151 54.1652 344.485 54.6496 346.555 55.6183C348.624 56.543 350.254 57.908 351.442 59.7134C352.675 61.5188 353.292 63.7645 353.292 66.4505C353.292 70.4135 351.773 73.4958 348.734 75.6975C345.696 77.8992 341.183 79 335.194 79H312.209ZM320.795 72.2629H334.666C337.88 72.2629 340.346 71.7345 342.063 70.6777C343.781 69.6209 344.639 67.9256 344.639 65.5919C344.639 63.3021 343.781 61.6289 342.063 60.5721C340.346 59.4712 337.88 58.9208 334.666 58.9208H320.135V52.2498H332.948C335.943 52.2498 338.232 51.7214 339.818 50.6646C341.447 49.6078 342.261 48.0226 342.261 45.909C342.261 43.7513 341.447 42.1441 339.818 41.0873C338.232 40.0305 335.943 39.5021 332.948 39.5021H320.795V72.2629Z" fill="#005587"/>
<rect x="401" width="114.416" height="110.653" rx="7.5274" fill="#FFE9AD"/>
<path d="M449.416 79V43.7293H457.276V53.4387L456.351 50.5985C457.408 48.2207 459.059 46.4154 461.305 45.1824C463.595 43.9495 466.435 43.333 469.826 43.333V51.193C469.473 51.1049 469.143 51.0609 468.835 51.0609C468.527 51.0168 468.218 50.9948 467.91 50.9948C464.784 50.9948 462.296 51.9195 460.446 53.7689C458.597 55.5743 457.672 58.2823 457.672 61.8931V79H449.416Z" fill="#FFBB00"/>
<rect x="528" width="114.416" height="110.653" rx="7.5274" fill="#8BB8E8"/>
<path d="M582.343 79.4623C579.349 79.4623 576.707 78.9119 574.417 77.8111C572.128 76.6662 570.344 74.9489 569.067 72.6592C567.79 70.3254 567.152 67.3972 567.152 63.8746V43.7293H575.408V62.7517C575.408 65.9221 576.113 68.2999 577.522 69.8851C578.975 71.4263 581.022 72.1969 583.664 72.1969C585.602 72.1969 587.275 71.8006 588.684 71.008C590.137 70.2154 591.26 69.0265 592.053 67.4413C592.889 65.8561 593.308 63.8966 593.308 61.5628V43.7293H601.564V79H593.704V69.4888L595.091 72.395C593.902 74.6847 592.163 76.4461 589.873 77.679C587.583 78.8679 585.073 79.4623 582.343 79.4623Z" fill="#005587"/>
<rect x="655" width="114.416" height="110.653" rx="7.5274" fill="#FFE9AD"/>
<path d="M707.416 79V43.7293H715.672V79H707.416ZM711.577 37.9169C710.036 37.9169 708.759 37.4326 707.746 36.4638C706.778 35.4951 706.293 34.3282 706.293 32.9632C706.293 31.5541 706.778 30.3872 707.746 29.4625C708.759 28.4938 710.036 28.0094 711.577 28.0094C713.118 28.0094 714.373 28.4718 715.342 29.3965C716.355 30.2772 716.861 31.4 716.861 32.765C716.861 34.2181 716.377 35.4511 715.408 36.4638C714.439 37.4326 713.162 37.9169 711.577 37.9169Z" fill="#FFBB00"/>
<rect x="782" width="114.416" height="110.653" rx="7.5274" fill="#8BB8E8"/>
<path d="M842.429 43.333C845.247 43.333 847.757 43.8834 849.959 44.9843C852.205 46.0851 853.966 47.7804 855.243 50.0701C856.52 52.3158 857.158 55.222 857.158 58.7887V79H848.902V59.8455C848.902 56.7191 848.154 54.3854 846.656 52.8442C845.203 51.3031 843.156 50.5325 840.514 50.5325C838.576 50.5325 836.859 50.9288 835.362 51.7214C833.865 52.514 832.698 53.7029 831.861 55.2881C831.069 56.8292 830.672 58.7887 830.672 61.1665V79H822.416V43.7293H830.276V53.2405L828.889 50.3343C830.122 48.0886 831.905 46.3713 834.239 45.1824C836.617 43.9495 839.347 43.333 842.429 43.333Z" fill="#005587"/>
<rect x="274" y="123" width="114.416" height="110.653" rx="7.5274" fill="#FFE9AD"/>
<path d="M328.416 202V152.991H336.672V202H328.416Z" fill="#FFBB00"/>
<rect x="147" y="123" width="114.416" height="110.653" rx="7.5274" fill="#8BB8E8"/>
<path d="M185.209 202V155.765H204.231C208.326 155.765 211.827 156.426 214.733 157.747C217.683 159.068 219.951 160.961 221.536 163.427C223.121 165.893 223.914 168.821 223.914 172.211C223.914 175.602 223.121 178.53 221.536 180.996C219.951 183.462 217.683 185.355 214.733 186.676C211.827 187.997 208.326 188.658 204.231 188.658H189.964L193.795 184.629V202H185.209ZM193.795 185.554L189.964 181.392H203.835C207.622 181.392 210.462 180.6 212.355 179.015C214.293 177.385 215.261 175.118 215.261 172.211C215.261 169.261 214.293 166.994 212.355 165.408C210.462 163.823 207.622 163.031 203.835 163.031H189.964L193.795 158.803V185.554Z" fill="#005587"/>
<rect x="909" y="123" width="114.416" height="110.653" rx="7.5274" fill="#8BB8E8"/>
<path d="M959.416 202V166.729H967.276V176.439L966.351 173.599C967.408 171.221 969.059 169.415 971.305 168.182C973.595 166.949 976.435 166.333 979.826 166.333V174.193C979.473 174.105 979.143 174.061 978.835 174.061C978.527 174.017 978.218 173.995 977.91 173.995C974.784 173.995 972.296 174.92 970.446 176.769C968.597 178.574 967.672 181.282 967.672 184.893V202H959.416Z" fill="#005587"/>
<rect x="401" y="123" width="114.416" height="110.653" rx="7.5274" fill="#8BB8E8"/>
<path d="M466.147 202V194.867L465.684 193.347V180.864C465.684 178.442 464.958 176.571 463.505 175.25C462.051 173.885 459.85 173.202 456.9 173.202C454.918 173.202 452.959 173.51 451.021 174.127C449.128 174.743 447.52 175.602 446.199 176.703L442.963 170.692C444.856 169.239 447.102 168.16 449.7 167.456C452.342 166.707 455.072 166.333 457.89 166.333C462.998 166.333 466.939 167.566 469.713 170.032C472.531 172.454 473.94 176.219 473.94 181.326V202H466.147ZM455.05 202.462C452.408 202.462 450.096 202.022 448.115 201.141C446.133 200.217 444.592 198.962 443.491 197.377C442.435 195.747 441.906 193.92 441.906 191.894C441.906 189.913 442.369 188.13 443.293 186.544C444.262 184.959 445.825 183.704 447.983 182.779C450.14 181.855 453.003 181.392 456.569 181.392H466.807V186.875H457.164C454.346 186.875 452.452 187.337 451.483 188.262C450.515 189.142 450.03 190.243 450.03 191.564C450.03 193.061 450.625 194.25 451.814 195.131C453.003 196.011 454.654 196.452 456.767 196.452C458.793 196.452 460.598 195.989 462.184 195.065C463.813 194.14 464.98 192.775 465.684 190.97L467.071 195.923C466.279 197.993 464.848 199.6 462.778 200.745C460.752 201.89 458.177 202.462 455.05 202.462Z" fill="#005587"/>
<rect x="528" y="123" width="114.416" height="110.653" rx="7.5274" fill="#FFE9AD"/>
<path d="M588.429 166.333C591.247 166.333 593.757 166.883 595.959 167.984C598.205 169.085 599.966 170.78 601.243 173.07C602.52 175.316 603.158 178.222 603.158 181.789V202H594.902V182.846C594.902 179.719 594.154 177.385 592.656 175.844C591.203 174.303 589.156 173.532 586.514 173.532C584.576 173.532 582.859 173.929 581.362 174.721C579.865 175.514 578.698 176.703 577.861 178.288C577.069 179.829 576.672 181.789 576.672 184.167V202H568.416V166.729H576.276V176.241L574.889 173.334C576.122 171.089 577.905 169.371 580.239 168.182C582.617 166.949 585.347 166.333 588.429 166.333Z" fill="#FFBB00"/>
<rect x="655" y="123" width="114.416" height="110.653" rx="7.5274" fill="#8BB8E8"/>
<path d="M715.429 166.333C718.247 166.333 720.757 166.883 722.959 167.984C725.205 169.085 726.966 170.78 728.243 173.07C729.52 175.316 730.158 178.222 730.158 181.789V202H721.902V182.846C721.902 179.719 721.154 177.385 719.656 175.844C718.203 174.303 716.156 173.532 713.514 173.532C711.576 173.532 709.859 173.929 708.362 174.721C706.865 175.514 705.698 176.703 704.861 178.288C704.069 179.829 703.672 181.789 703.672 184.167V202H695.416V166.729H703.276V176.241L701.889 173.334C703.122 171.089 704.905 169.371 707.239 168.182C709.617 166.949 712.347 166.333 715.429 166.333Z" fill="#005587"/>
<rect x="782" y="123" width="114.416" height="110.653" rx="7.5274" fill="#FFE9AD"/>
<path d="M841.995 202.462C838.076 202.462 834.641 201.692 831.691 200.151C828.785 198.565 826.517 196.408 824.888 193.678C823.302 190.948 822.51 187.843 822.51 184.365C822.51 180.842 823.28 177.738 824.822 175.052C826.407 172.322 828.564 170.186 831.295 168.645C834.069 167.104 837.217 166.333 840.74 166.333C844.174 166.333 847.235 167.082 849.921 168.579C852.607 170.076 854.72 172.189 856.261 174.92C857.803 177.65 858.573 180.864 858.573 184.563C858.573 184.915 858.551 185.311 858.507 185.752C858.507 186.192 858.485 186.61 858.441 187.007H829.049V181.525H854.082L850.845 183.242C850.889 181.216 850.471 179.433 849.59 177.892C848.71 176.351 847.499 175.14 845.958 174.259C844.46 173.378 842.721 172.938 840.74 172.938C838.714 172.938 836.931 173.378 835.39 174.259C833.893 175.14 832.704 176.373 831.823 177.958C830.986 179.499 830.568 181.326 830.568 183.44V184.761C830.568 186.875 831.052 188.746 832.021 190.375C832.99 192.004 834.355 193.259 836.116 194.14C837.878 195.021 839.903 195.461 842.193 195.461C844.174 195.461 845.958 195.153 847.543 194.536C849.128 193.92 850.537 192.951 851.77 191.63L856.195 196.716C854.61 198.565 852.607 199.996 850.185 201.009C847.807 201.978 845.077 202.462 841.995 202.462Z" fill="#FFBB00"/>
</svg>
